# xmcd
#
# Track frame offsets:
#	150
#	12151
#	24790
#	33845
#	42424
#	53474
#	65298
#	78476
#	88359
#	99313
#	113687
#	126209
#	138984
#	151659
#	164492
#	177359
#	194436
#	204934
#	216440
#	224579
#
# Disc length: 3194 seconds
#
# Revision: 0
# Processed by: cddbd v1.5.2PL0 Copyright (c) Steve Scherf et al.
# Submitted via: EZCDAudioConverter 1.3.4.1
#
DISCID=0c0c7814
DTITLE=Sagittarius - Present Tense
DYEAR=1968
DGENRE=
TTITLE0=Another Time
TTITLE1=Song To The Magic Frog (Will You Ever Know)
TTITLE2=You Know I've Found A Way
TTITLE3=The Keeper Of The Games
TTITLE4=Glass
TTITLE5=Would You Like To Go
TTITLE6=My World Fell Down
TTITLE7=Hotel Indiscreet
TTITLE8=I'm Not Living Here
TTITLE9=Musty Dusty
TTITLE10=The Truth Is Not Real
TTITLE11=Artificial Light (Of All The Living Lies)
TTITLE12=Get The Message
TTITLE13=Mass #586
TTITLE14=Love's Fatal Way
TTITLE15=My World Fell Down [Mono Single]
TTITLE16=Hotel Indiscreet [Mono Single]
TTITLE17=Lonely Girl
TTITLE18=The Keeper Of The Games [Demo]
TTITLE19=Sister Marie [Instrumental]
EXTD=
EXTT0=
EXTT1=
EXTT2=
EXTT3=
EXTT4=
EXTT5=
EXTT6=
EXTT7=
EXTT8=
EXTT9=
EXTT10=
EXTT11=
EXTT12=
EXTT13=
EXTT14=
EXTT15=
EXTT16=
EXTT17=
EXTT18=
EXTT19=
PLAYORDER=
